# xmcd
#
# Track frame offsets:
#	150
#	13155
#	25520
#	43560
#	53198
#	63598
#	72755
#	84414
#	94346
#	105254
#
# Disc length: 1562
#
# Revision: 2
# Processed by: cddbd v1.5.1PL0 Copyright (c) Steve Scherf et al.
# Submitted via: CDex 1.50
# Normalized: r0:TDELIM( - );r1:TSWAP
#
DISCID=7606180a
DTITLE=Various Artist - Country Classics Hit Of The 1969
DYEAR=1969
DGENRE=Country
TTITLE0=Jack Greene - Statue Of A Fool
TTITLE1=Tommy Cash - Six With Horses
TTITLE2=Johnny Bush - You Gave Me A Mountain
TTITLE3=Jack Greene - Wish I Didn't have To Miss You
TTITLE4=David Houston - Baby Baby
TTITLE5=Warner Mack - Leave My Dream Alone
TTITLE6=Del Reeve - Be Glad
TTITLE7=Porter Wagoner - Big Wing
TTITLE8=Faron Young - Wine Me Up
TTITLE9=Freddy Weller - There Are Not My People
EXTD=YEAR: 1969
EXTT0=
EXTT1=
EXTT2=
EXTT3=
EXTT4=
EXTT5=
EXTT6=
EXTT7=
EXTT8=
EXTT9=
PLAYORDER=
